inDegrees=no
num_controls=7
num_derivatives=13
num_iterations=127
num_multipliers=7
num_parameters=0
num_slacks=7
num_states=26
objective=0.497059
objective_accelerations=0.032145
objective_balance=0.003275
objective_effort=0.034974
objective_height=0.421187
objective_ligament=0.005479
solver_duration=1454.076080
status=Solve_Succeeded
success=true
DataType=double
version=3
OpenSimVersion=4.5
endheader
time	/jointset/ground_pelvis/pelvis_tilt/value	/jointset/ground_pelvis/pelvis_tx/value	/jointset/ground_pelvis/pelvis_ty/value	/jointset/hip_r/hip_flexion_r/value	/jointset/hip_r/hip_adduction_r/value	/jointset/hip_r/hip_rotation_r/value	/jointset/back/lumbar_extension/value	/jointset/patellofemoral_r/patellar_flexion_r/value	/jointset/knee_r/knee_flexion_r/value	/jointset/knee_r/knee_adduction_r/value	/jointset/knee_r/knee_rotation_r/value	/jointset/ankle_r/ankle_angle_r/value	/jointset/subtalar_r/subtalar_angle_r/value	/jointset/ground_pelvis/pelvis_tilt/speed	/jointset/ground_pelvis/pelvis_tx/speed	/jointset/ground_pelvis/pelvis_ty/speed	/jointset/hip_r/hip_flexion_r/speed	/jointset/hip_r/hip_adduction_r/speed	/jointset/hip_r/hip_rotation_r/speed	/jointset/back/lumbar_extension/speed	/jointset/patellofemoral_r/patellar_flexion_r/speed	/jointset/knee_r/knee_flexion_r/speed	/jointset/knee_r/knee_adduction_r/speed	/jointset/knee_r/knee_rotation_r/speed	/jointset/ankle_r/ankle_angle_r/speed	/jointset/subtalar_r/subtalar_angle_r/speed	/forceset/tau_hip_flexion_r	/forceset/tau_hip_adduction_r	/forceset/tau_hip_rotation_r	/forceset/tau_knee_flexion_r	/forceset/tau_ankle_angle_r	/forceset/tau_subtalar_angle_r	/forceset/tau_lumbar_extension	lambda_cid13_p0	lambda_cid14_p0	lambda_cid14_p1	lambda_cid14_p2	lambda_cid14_p3	lambda_cid14_p4	lambda_cid14_p5	/jointset/ground_pelvis/pelvis_tilt/accel	/jointset/ground_pelvis/pelvis_tx/accel	/jointset/ground_pelvis/pelvis_ty/accel	/jointset/hip_r/hip_flexion_r/accel	/jointset/hip_r/hip_adduction_r/accel	/jointset/hip_r/hip_rotation_r/accel	/jointset/back/lumbar_extension/accel	/jointset/patellofemoral_r/patellar_flexion_r/accel	/jointset/knee_r/knee_flexion_r/accel	/jointset/knee_r/knee_adduction_r/accel	/jointset/knee_r/knee_rotation_r/accel	/jointset/ankle_r/ankle_angle_r/accel	/jointset/subtalar_r/subtalar_angle_r/accel	gamma_cid13_p0	gamma_cid14_p0	gamma_cid14_p1	gamma_cid14_p2	gamma_cid14_p3	gamma_cid14_p4	gamma_cid14_p5
1.5	-0.1063498218185138	0.06211130842528578	0.8717383633597577	0.6615502704340397	-0.2273707336312595	-0.1444695753048172	-0.2801272286720618	0.6421654964862764	0.6421654964863464	0.04177320423533067	0.1745050303436267	0.2569869270623015	0.05856864300812435	0.2273868998856458	0.115148244370746	0.3204560683393505	-1.427899222323735	0.01907998558432603	-0.2796170683001407	0.6974630196275555	-1.731367941150826	-1.731367941150914	0.275884363575182	0.0001121033715457797	-0.6200774994341089	-0.1525672949701077	-0.06458772975180697	-0.01606165643399881	0.006560263690738405	-0.3217809676936315	0.05510456862834124	-0.01236304876387554	0.1221326375838196	-34.49963893134822	-24.12314568561156	-5.573542978568693	-3.242711926751246	3.428892374300599	-663.2646204389686	56.98673748853309	0.04719411043418071	0.2650504856232211	-0.4368075768158228	-0.7272169698090171	-0.02054480302316798	-0.549147644808002	1.217959200722672	-1.016837439451709	-1.016837439451701	0.3887730092873602	-0.00255443477830217	-0.4572985223503481	-0.03448015278509864	1.126386195524668e-07	1.480995330083663e-07	-5.518953686671101e-07	1.207139278356546e-06	-1.839574307253424e-08	1.713046297164898e-07	-8.721961942285685e-07
1.51	-0.1040740289943876	0.06327588011567072	0.8749203696197388	0.6472368721746594	-0.227181690842554	-0.1472923228917744	-0.2730925741610536	0.6248033809414384	0.6248033809414671	0.04455321111202537	0.1745062419706334	0.2507639016955012	0.05704044640455365	0.2277382155723833	0.1177475872737261	0.3158785443372222	-1.434580044173114	0.01872957016420719	-0.2849180928203874	0.709364137151315	-1.740807547157492	-1.740807547157583	0.2800985156105956	0.000125081638600491	-0.6244397365407395	-0.1530444934465618	-0.05913869793029918	-0.01798785379049795	0.005911748721415464	-0.3186971582358488	0.05916818499446438	-0.01308678427807248	0.1170532844931833	-35.38213445472428	-22.69589727960755	-5.525996005284628	-3.378182124153633	2.926731641163225	-660.2490268808946	57.15313401719276	0.0240976939826211	0.254600035775929	-0.4781844589346035	-0.608438929479344	-0.04199916335180452	-0.518224162288225	1.160626214664213	-0.8704045189536733	-0.8704045189541492	0.4349313628543169	0.002668900616513775	-0.4124960059796604	-0.05017860658143591	1.222377462712545e-07	1.499562759335489e-07	-6.724582133740995e-07	1.231906421292843e-06	-6.888635690221237e-09	1.778716298581607e-07	-9.605268937808725e-07
1.52	-0.1017957235341561	0.0644658900037135	0.8780546087102939	0.6328626808693949	-0.226996094058417	-0.1501676095852658	-0.2659420208375143	0.6073542928690007	0.6073542928689846	0.04737479852151523	0.1745074723689426	0.2444998920174024	0.05550831003391738	0.227889427106685	0.1202358839023189	0.310902634454151	-1.440057831501571	0.0183907846702592	-0.290124889606842	0.7206427821335408	-1.748762446671347	-1.748762446671441	0.2842004701334432	0.0001158576324219175	-0.6282743616937795	-0.1533552483832495	-0.05368966610875361	-0.01991405114698108	0.005263233752054682	-0.3156133487780577	0.06323180136059277	-0.01381051979224611	0.1119739314025774	-36.23110539629962	-21.27761062316304	-5.47734678105861	-3.516880267697952	2.420777586481857	-657.3809702901542	57.39239712607546	0.007173279946942957	0.2428412307458296	-0.5164847530044038	-0.4866100656245358	-0.01821881778900318	-0.5303020980495745	1.093464692415884	-0.7198961408897098	-0.7198961408897027	0.3663335067741636	-0.006994889424947933	-0.3517761316321624	-0.001191444831802803	1.31574877985469e-07	1.508830970365462e-07	-7.908729703215077e-07	1.249762069087769e-06	4.928411681516105e-09	1.828491571273176e-07	-1.04214551729319e-06
1.53	-0.09951690996786777	0.06568020313862481	0.8811371466453214	0.618439762953724	-0.2268138868623712	-0.153094663004975	-0.2586818605858794	0.5898331724021989	0.5898331724022018	0.05023684125415363	0.174508706041203	0.2382002072247288	0.05397383010156896	0.2278411519630729	0.1226054473402438	0.3055437381118648	-1.44432052617781	0.01805103638661218	-0.2952640819153058	0.7312759039955254	-1.755202928277599	-1.755202928277601	0.2881906134131683	0.0001247604248460207	-0.631569324367129	-0.1535142338785403	-0.04817779804226682	-0.02199784762213114	0.004633709111082478	-0.3126061353785808	0.06742252569719499	-0.01464338729755175	0.1068557987534054	-37.04207619307478	-19.8302213233008	-5.477205516920415	-3.640753495078609	1.917019161551348	-654.5990000115577	57.58727928161337	-0.01563320396320561	0.2308242549974075	-0.5547366610669344	-0.36529746189011	-0.04167558283883486	-0.5022510764825112	1.031231303280001	-0.5673455054451905	-0.5673455054313579	0.4126762221162709	0.004134562858090371	-0.3043457080711456	-0.01927959146483888	1.406336400073244e-07	1.508218762034714e-07	-9.070053840243607e-07	1.260274253294988e-06	1.707477029201681e-08	1.861378694694284e-07	-1.116632560013021e-06
1.54	-0.09723954021150458	0.06691757397885163	0.8841642666996807	0.6039803784326423	-0.2266350416989958	-0.1560724130036182	-0.2513187700415855	0.5722554028523459	0.5722554028523668	0.05313824971630331	0.174509889081244	0.2318703749307448	0.05243855481635037	0.2276006651215453	0.124847424965421	0.2998190583205219	-1.447351152584711	0.01771837813550783	-0.3002642053932781	0.7412288406651224	-1.760092263281942	-1.760092263281851	0.2920736160346732	0.0001057311885505754	-0.6343038619558697	-0.1535143189573145	-0.04266592997574419	-0.02408164409726919	0.004004184470094799	-0.3095989219790958	0.07161325003380138	-0.01547625480284048	0.1017376661042627	-37.81058520844145	-18.39238510307073	-5.475729053791467	-3.768276156480147	1.409660759062419	-651.9764320402548	57.85925233307398	-0.03126905963623751	0.2173240681963409	-0.5896414428157487	-0.2401964117570384	-0.01680081128047398	-0.50248833195127	0.9574276539383125	-0.4096668205079448	-0.4096668205079464	0.3449053751301277	-0.01258129516884659	-0.2396911147103414	0.03058863847152901	1.504347753231787e-07	1.501559039559209e-07	-1.034056604814102e-06	1.266269167923966e-06	3.047899734197533e-08	1.889845832867038e-07	-1.192048676728875e-06
1.55	-0.09496556303674451	0.06817669826482904	0.8871323671511183	0.5894969111839697	-0.2264595329013008	-0.1590997297064478	-0.2438596430132758	0.5546365814004455	0.5546365814004599	0.05607788199193985	0.1745110148694977	0.2255160237608344	0.0509040257382047	0.2271612040214197	0.1269529466328918	0.2937457125768126	-1.449128472822912	0.01738420223802906	-0.3051711343591204	0.7504716788840177	-1.763402479793911	-1.763402479793808	0.2958325317593896	0.0001124642679043356	-0.6364683174238956	-0.1533647427859749	-0.03703298510191705	-0.02635668792930305	0.003380997920916123	-0.3067695691985422	0.07605747740635779	-0.01644260490631024	0.0965406102227984	-38.53220035041109	-16.88729005112931	-5.527320868054823	-3.879486461366515	0.8829889252442298	-649.4624926556462	58.08899774592619	-0.05530494227101541	0.2035040935008755	-0.6244405245537552	-0.1144088744105629	-0.04151408473424527	-0.4803579060767665	0.8889789888201237	-0.2513003732446274	-0.2513003732426359	0.3882418805786373	0.006476399554340707	-0.1900885656283911	0.01110791807241289	1.610912537821186e-07	1.487931529047354e-07	-1.17368819029091e-06	1.267059402386711e-06	4.533250759391777e-08	1.913220379340603e-07	-1.268535248266233e-06
1.56	-0.09269698453439892	0.06945614534297677	0.8900380822682377	0.5750020889240084	-0.2262873234837269	-0.1621752282443736	-0.236311834186185	0.5369927375220881	0.5369927375220929	0.05905447486671896	0.1745120431465531	0.2191429748756879	0.04937178558409405	0.226520930638483	0.1289119833994853	0.2873419914568911	-1.449622154843474	0.01705850211043721	-0.3099005724120038	0.758965200421115	-1.765096748574007	-1.76509674857389	0.2994657358615511	8.622894993318291e-05	-0.6380434050031072	-0.153056534150345	-0.03140004022805273	-0.02863173176132536	0.002757811371693807	-0.303940216417978	0.08050170477891901	-0.01740895500976331	0.091343554341364	-39.20260888349913	-15.39219237097302	-5.577287138321053	-3.994812964050263	0.3526061678712085	-647.1177992156539	58.39940867442007	-0.07143151619850541	0.1880270880209247	-0.6557165180581871	0.01653123177058543	-0.01510565730308924	-0.4669901493594991	0.8075643175786904	-0.08647727413300045	-0.08647727413300002	0.3197630506191574	-0.01917497463381625	-0.1218175369473684	0.06231513132958594	1.718922757193989e-07	1.485860230817572e-07	-1.31285425208067e-06	1.270334798986341e-06	5.868156214911173e-08	1.99323718303726e-07	-1.343875479171229e-06
1.57	-0.09043577070688133	0.07075441898064015	0.8928781849594339	0.5605087065721277	-0.2261183815683221	-0.1652974025849811	-0.2286830040686023	0.5193400596983229	0.5193400596982838	0.06206673400010909	0.1745129324065335	0.2127571161765545	0.04784335696817126	0.2256867497020576	0.1307146894166482	0.2806295086931671	-1.448830629008955	0.01672970410280571	-0.3145011904954682	0.7666651034313509	-1.765157361441257	-1.765157361441152	0.3029636970139588	8.698216178181876e-05	-0.6390260835296009	-0.1526040533752755	-0.02567546401346089	-0.03108089581429209	0.002129971715526363	-0.3012581478200298	0.08513533444674257	-0.01851647314187616	0.08609376838252113	-39.81774729913003	-13.85290871440197	-5.687252826459889	-4.093232173627397	-0.1754816998023738	-644.9156550110065	58.65402473821246	-0.09466030616070308	0.1721995018641001	-0.686325251063698	0.1440330583220219	-0.04173638110770015	-0.4513768025812056	0.730845343014207	0.07632707831431118	0.07632707831255682	0.3613194201716345	0.009229159774906955	-0.0711229278497281	0.04039505001412309	1.828739770046045e-07	1.498234197940378e-07	-1.451438409261619e-06	1.276716648257078e-06	7.015004708337012e-08	2.144056808262781e-07	-1.417782784285774e-06
1.58	-0.08818394847348625	0.07206988110713511	0.895649700603886	0.5460299534384032	-0.2259527215347115	-0.1684645389393744	-0.2209812465108627	0.5016952118201516	0.5016952118200717	0.06511327409955391	0.1745137349367709	0.2063645047086863	0.04632018925988303	0.2246426118137871	0.1323496811657993	0.2736245821080776	-1.446696311213258	0.01640212575058646	-0.3188929751685838	0.773550688452317	-1.763530759455091	-1.763530759454997	0.3063219290711647	6.88830008589942e-05	-0.639393958750068	-0.152004352623465	-0.01995088779883211	-0.0335300598672471	0.00150213205936453	-0.2985760792220713	0.0897689641145715	-0.01962399127397313	0.08084398242370686	-40.37684198116209	-12.32240503986792	-5.795073172143444	-4.196200676755271	-0.7115909834417975	-642.8677044779901	58.99024299428925	-0.1134229065675818	0.1544842344186158	-0.7142052823312925	0.2850896240061722	-0.01486172622064445	-0.425223467289726	0.6447007197247342	0.2509656965505229	0.250965696550522	0.2918172315788248	-0.02294544918809383	0.001143124258006274	0.09175912667779701	1.936571998349743e-07	1.525046232074055e-07	-1.584272273386225e-06	1.286708830128509e-06	7.941393949646114e-08	2.366949125461162e-07	-1.488868471599809e-06
1.59	-0.08594348092852695	0.07340082451682252	0.8983498080277965	0.5315790688209535	-0.2257903504968318	-0.1716747712686094	-0.2132149576236477	0.4840750067474103	0.4840750067473617	0.06819263928250707	0.1745144665655952	0.199971258439721	0.04480372885331516	0.2234152714777847	0.1338073623264803	0.2663548872358644	-1.443247371775565	0.01607327069561318	-0.3231139115359823	0.7795617438587061	-1.760217095541796	-1.760217095541692	0.3095207711739356	7.213363379984242e-05	-0.6391482564228149	-0.1512609810502878	-0.01417929053012523	-0.03612181769917244	0.0008598397112223548	-0.2960343534057392	0.09451118566089139	-0.02087546229953255	0.07558153790759925	-40.87971018110765	-10.77800426903008	-5.968559817242254	-4.282324728929951	-1.219923548839339	-641.0315212621169	59.2607668177291	-0.1327208451636208	0.1366821750086651	-0.7395963297573372	0.4097987175709925	-0.04169083448918413	-0.4143188077748689	0.5575061811786223	0.4154985841026819	0.4154985841043186	0.3292001372385032	0.01139815346947032	0.05237783881570509	0.06951211506316159	2.041710590480668e-07	1.571452785722482e-07	-1.709302168362936e-06	1.301600749100882e-06	8.56858849165395e-08	2.68765438176556e-07	-1.556124820470292e-06
